<svg width="49" height="49" viewBox="0 0 49 49" fill="none" xmlns="http://www.w3.org/2000/svg">
<path d="M24.5 0C19.6544 0 14.9175 1.4369 10.8885 4.12899C6.85953 6.82109 3.71931 10.6475 1.86496 15.1243C0.0106155 19.601 -0.474566 24.5272 0.470772 29.2797C1.41611 34.0322 3.74951 38.3977 7.17589 41.8241C10.6023 45.2505 14.9678 47.5839 19.7203 48.5292C24.4728 49.4746 29.399 48.9894 33.8758 47.135C38.3525 45.2807 42.1789 42.1405 44.871 38.1115C47.5631 34.0825 49 29.3456 49 24.5C49 18.0022 46.4188 11.7705 41.8241 7.17588C37.2295 2.58124 30.9978 0 24.5 0ZM27.7708 27.8871V26.0925L36.5356 23.8569L27.5258 18.1177L23.0484 33.6997L8.64851 24.5122L21.7744 21.119V22.9136L13.0156 25.1431L22.05 30.8884L26.5151 15.3002L40.9028 24.4877L27.7708 27.8871Z" fill="white"/>
</svg>
